# xmcd
#
# Track frame offsets:
# 150
# 9335
# 22059
# 35286
# 47406
# 60513
# 69323
# 84402
# 94148
# 104462
# 114226
# 125176
# 136813
# 146131
# 156157
# 169287
# 181486
# 193516
# 205924
# 217131
#
# Disc length: 3106 seconds
#
#
# Revision: 1
# Processed by: cddbd v1.5.1PL0 Copyright (c) Steve Scherf et al.
# Submitted via: FreeRIP 2.94 
#
DISCID=1c0c2014
DTITLE=Verzamel-cd - Country Legends 2
DYEAR=1900
DGENRE=
TTITLE0=Jim Reeves - Billy Bayou
TTITLE1=Johnny Cash - Ring Of Fire
TTITLE2=Jack Greene - California Turn - Arounds
TTITLE3=Billie Jo Spears - Misty Blue
TTITLE4=George Jones - The Old Rugged Cross
TTITLE5=Johnny Cash - Get Rhythm
TTITLE6=Jerry Lee Lewis - Cold, Cold Heart
TTITLE7=Gene Autry - May The Good Lord Bless And Keep You
TTITLE8=Anne Murray - Some Birds
TTITLE9=Barbara Mandrell - Release Me
TTITLE10=Donna Fargo - Wishful Thinking
TTITLE11=Charley Pride - Shutters And Boards
TTITLE12=Loretta Lynn - Your Squaw Is On The Warpath
TTITLE13=Willie Nelson - Broken Promises
TTITLE14=George Jones - Hello Darlin'
TTITLE15=Johnny Dollar - Big, Big Rollin' Man
TTITLE16=Kenny Rogers - Me And Bobby McGee
TTITLE17=Patsy Cline - A Poor Man's Roses
TTITLE18=Charley Pride - Louisiana Man
TTITLE19=Brenda Lee - Johnny One Time
EXTD=
EXTT0=
EXTT1=
EXTT2=
EXTT3=
EXTT4=
EXTT5=
EXTT6=
EXTT7=
EXTT8=
EXTT9=
EXTT10=
EXTT11=
EXTT12=
EXTT13=
EXTT14=
EXTT15=
EXTT16=
EXTT17=
EXTT18=
EXTT19=
PLAYORDER=
